<?xml version="1.0" standalone="no"?>
<!DOCTYPE svg PUBLIC "-//W3C//DTD SVG 20010904//EN"
 "http://www.w3.org/TR/2001/REC-SVG-20010904/DTD/svg10.dtd">
<svg version="1.0" xmlns="http://www.w3.org/2000/svg"
 width="1396.000000pt" height="872.000000pt" viewBox="0 0 1396.000000 872.000000"
 preserveAspectRatio="xMidYMid meet">

<g transform="translate(0.000000,872.000000) scale(0.100000,-0.100000)"
fill="#000000" stroke="none">
<path d="M5460 8180 c-47 -5 -202 -8 -345 -9 -143 0 -327 -5 -410 -11 -82 -6
-262 -15 -400 -21 -581 -27 -1093 -60 -1113 -73 -6 -4 -59 -11 -119 -17 -59
-6 -137 -14 -173 -19 -36 -5 -94 -14 -130 -19 -36 -5 -94 -16 -130 -25 -36
-10 -77 -20 -93 -23 -15 -3 -30 -9 -33 -14 -3 -5 -14 -9 -25 -9 -10 0 -27 -4
-37 -9 -9 -5 -53 -26 -97 -47 -44 -21 -94 -49 -111 -61 -17 -13 -36 -23 -42
-23 -7 0 -12 -4 -12 -10 0 -5 -7 -10 -15 -10 -8 0 -15 -3 -15 -7 0 -5 -20 -21
-44 -38 -89 -60 -271 -263 -336 -375 -43 -75 -100 -193 -100 -208 0 -10 -4
-22 -8 -28 -5 -5 -17 -36 -27 -69 -9 -33 -22 -70 -26 -83 -5 -13 -9 -38 -9
-55 0 -18 -4 -37 -9 -43 -5 -5 -11 -29 -14 -54 -3 -25 -13 -81 -22 -125 -23
-107 -42 -254 -63 -487 -6 -59 -13 -112 -17 -118 -11 -18 -30 -305 -56 -865
-17 -350 -17 -1350 0 -1700 27 -576 45 -847 56 -865 4 -6 11 -59 17 -118 21
-233 40 -380 63 -487 9 -44 19 -100 22 -125 3 -25 9 -49 14 -54 5 -6 9 -25 9
-43 0 -17 4 -42 9 -55 4 -13 17 -50 26 -83 10 -33 22 -64 27 -69 4 -6 8 -18 8
-27 0 -9 19 -55 43 -101 57 -109 65 -123 112 -187 22 -29 49 -66 59 -80 44
-60 220 -220 276 -252 14 -8 27 -16 30 -19 9 -9 44 -29 80 -48 19 -9 37 -20
38 -24 2 -5 10 -8 17 -8 11 0 69 -26 137 -61 10 -5 29 -9 42 -9 14 0 27 -4 30
-9 3 -5 20 -11 38 -14 18 -3 65 -13 103 -22 39 -9 99 -21 135 -26 156 -21 221
-29 318 -39 57 -5 108 -13 114 -16 14 -9 354 -33 743 -53 99 -5 214 -12 255
-16 113 -9 526 -25 970 -37 514 -15 2818 -15 3340 0 474 12 898 29 990 37 36
4 151 11 255 16 180 9 281 16 596 37 75 5 141 12 147 16 5 3 57 11 114 17 238
24 474 62 493 80 5 5 21 9 36 9 15 0 31 5 34 10 3 6 15 10 26 10 10 0 27 4 37
9 84 42 129 61 140 61 6 0 12 5 12 10 0 6 5 10 11 10 12 0 154 92 204 131 45
37 167 159 200 203 17 21 36 45 43 52 6 7 12 15 12 19 0 3 11 21 24 38 43 57
88 143 125 240 4 12 16 39 25 60 9 21 16 46 16 55 0 10 4 22 9 27 5 6 11 28
14 50 3 22 10 60 16 85 45 204 64 324 90 578 6 57 14 109 17 114 14 22 52 631
73 1158 13 342 13 1085 0 1405 -23 538 -59 1091 -73 1114 -4 6 -12 55 -17 108
-17 166 -41 328 -64 433 -9 41 -19 92 -22 113 -3 20 -9 40 -14 43 -5 3 -9 23
-9 44 0 21 -4 42 -10 45 -5 3 -10 15 -10 25 0 11 -7 36 -16 57 -9 21 -21 48
-25 61 -29 75 -37 91 -74 157 -16 28 -34 62 -42 76 -7 14 -22 34 -33 44 -11
10 -20 22 -20 27 0 16 -176 201 -240 253 -88 69 -229 155 -255 155 -8 0 -15 5
-15 10 0 6 -6 10 -14 10 -8 0 -29 8 -48 17 -62 31 -68 33 -93 33 -14 0 -25 4
-25 9 0 5 -17 11 -37 14 -21 3 -67 13 -103 22 -36 10 -94 21 -130 26 -165 24
-202 28 -298 38 -57 6 -108 14 -113 17 -13 8 -369 33 -739 53 -102 5 -214 12
-250 16 -92 8 -536 26 -925 37 -419 11 -3032 18 -3145 8z m1494 -1689 c34 -11
88 -27 121 -35 33 -9 74 -21 90 -25 17 -5 64 -19 105 -31 41 -11 97 -27 124
-35 26 -8 56 -15 65 -15 10 0 21 -3 25 -7 4 -5 29 -13 54 -20 71 -18 146 -38
267 -73 61 -18 133 -38 160 -45 57 -15 199 -56 390 -110 140 -40 405 -116 495
-140 30 -9 69 -20 85 -24 52 -15 257 -73 345 -97 30 -9 65 -20 78 -25 13 -5
32 -9 43 -9 12 0 35 -15 53 -34 38 -41 13 -9 249 -325 227 -303 228 -307 145
-339 -86 -33 -269 -96 -483 -167 -110 -36 -207 -69 -215 -74 -9 -5 -31 -12
-50 -16 -19 -4 -39 -10 -45 -13 -9 -6 -209 -74 -780 -267 -137 -46 -322 -109
-410 -140 -88 -30 -167 -53 -176 -50 -15 5 -108 115 -364 430 -228 281 -262
320 -281 318 -10 -1 -46 -9 -79 -18 -75 -22 -115 -22 -190 0 -92 26 -94 26
-144 -36 -112 -135 -263 -321 -345 -423 -145 -182 -218 -265 -235 -271 -9 -3
-122 31 -251 76 -129 44 -251 85 -270 90 -19 6 -44 14 -55 19 -11 5 -110 39
-220 75 -110 36 -207 69 -215 74 -9 5 -31 12 -50 16 -19 4 -39 11 -45 15 -5 4
-26 11 -45 15 -19 4 -39 11 -45 14 -5 4 -62 24 -125 45 -63 20 -122 40 -130
45 -9 5 -31 12 -50 16 -19 4 -39 11 -45 15 -5 4 -26 11 -45 15 -19 4 -41 11
-50 16 -8 4 -98 35 -200 69 -102 34 -194 65 -205 69 -11 5 -53 21 -92 36 -103
38 -102 46 35 225 59 78 114 151 122 164 8 12 31 42 49 66 19 23 46 60 60 80
91 133 116 156 201 179 41 12 89 25 105 30 48 14 141 40 197 56 82 22 200 56
228 65 14 4 54 16 90 25 36 10 108 30 160 45 114 33 383 110 425 121 17 4 80
22 140 39 121 35 187 53 255 70 25 7 54 15 65 20 11 5 40 14 65 20 68 17 139
37 200 55 55 16 105 30 210 59 30 8 80 22 110 31 30 9 73 21 95 26 22 6 58 16
80 24 54 19 78 18 149 -4z m-216 -1721 l22 -21 0 -1157 c0 -1032 -2 -1160 -16
-1180 -23 -33 -41 -30 -169 28 -11 5 -60 25 -110 45 -49 20 -99 40 -110 45
-22 9 -64 27 -135 55 -57 23 -129 53 -155 65 -11 5 -60 25 -110 45 -49 20 -99
40 -110 45 -52 23 -94 41 -140 58 -27 11 -75 31 -105 44 -30 14 -75 33 -100
42 -25 10 -54 22 -65 27 -11 4 -76 31 -145 59 -69 28 -134 55 -145 60 -27 12
-100 42 -155 64 -25 10 -54 22 -65 27 -83 34 -122 51 -137 59 -10 6 -23 10
-29 10 -6 0 -25 6 -42 14 -18 8 -54 24 -82 36 -27 12 -59 25 -70 30 -11 5 -55
23 -98 41 -45 18 -84 41 -93 54 -22 34 -16 1291 6 1306 17 11 100 5 127 -10
10 -6 108 -40 218 -76 110 -36 209 -70 220 -75 11 -5 103 -36 205 -70 102 -33
192 -65 200 -69 9 -5 31 -12 50 -16 19 -4 41 -11 50 -16 8 -4 105 -38 215 -74
110 -36 207 -70 215 -74 9 -5 31 -12 50 -16 19 -4 40 -10 45 -14 24 -14 140
-48 155 -44 8 3 53 52 100 110 47 58 90 111 95 117 6 6 19 23 30 37 72 97 299
371 321 388 33 26 35 26 62 1z m348 -22 c22 -24 87 -101 144 -173 131 -164
220 -274 241 -297 9 -10 40 -50 70 -88 49 -64 57 -70 91 -70 20 0 39 4 42 9 3
5 22 12 42 16 20 3 44 10 53 15 9 5 106 39 216 75 110 36 207 70 215 74 9 5
31 12 50 16 19 4 39 10 45 13 12 7 350 123 620 213 116 38 217 73 225 78 9 5
31 12 50 16 19 4 40 12 47 17 6 5 37 12 67 15 53 6 56 5 66 -21 6 -18 10 -248
10 -649 0 -524 -2 -626 -14 -643 -8 -11 -45 -33 -83 -49 -98 -40 -155 -65
-178 -75 -11 -5 -45 -19 -75 -30 -30 -11 -64 -25 -75 -30 -11 -5 -42 -18 -70
-30 -27 -11 -58 -25 -67 -30 -10 -6 -23 -10 -29 -10 -6 0 -25 -6 -42 -14 -18
-8 -54 -24 -82 -36 -27 -12 -59 -25 -70 -30 -11 -5 -45 -19 -75 -30 -30 -11
-64 -25 -75 -30 -35 -16 -133 -57 -205 -86 -40 -16 -88 -35 -157 -65 -56 -23
-75 -31 -193 -79 -69 -29 -134 -56 -145 -60 -86 -37 -114 -49 -145 -60 -34
-13 -104 -42 -145 -60 -41 -18 -111 -47 -145 -60 -34 -13 -104 -42 -145 -60
-133 -59 -146 -61 -169 -28 -14 20 -16 149 -16 1180 0 1145 0 1158 20 1178 29
29 41 25 86 -22z"/>
<path d="M6795 6275 c-44 -14 -108 -33 -200 -59 -51 -14 -222 -62 -435 -122
-30 -8 -80 -22 -110 -30 -30 -8 -68 -19 -85 -23 -46 -14 -174 -50 -235 -68
-30 -8 -68 -19 -85 -24 -16 -4 -55 -15 -85 -23 -30 -8 -86 -24 -124 -35 -38
-12 -77 -21 -86 -21 -9 0 -20 -3 -24 -7 -7 -8 -23 -12 -166 -48 -36 -9 -69
-20 -74 -25 -4 -4 18 -13 50 -20 57 -11 86 -19 203 -54 29 -9 60 -16 67 -16 8
0 22 -4 32 -10 9 -5 37 -14 62 -19 25 -5 95 -24 155 -41 113 -32 189 -53 260
-71 89 -23 423 -115 465 -129 14 -4 90 -25 170 -45 80 -20 154 -41 165 -45 80
-34 174 -40 255 -17 62 18 258 72 335 93 129 34 236 63 300 82 39 12 113 32
165 46 52 14 145 39 205 56 61 17 133 37 160 45 28 7 102 27 165 45 63 17 140
38 170 46 30 8 83 22 118 30 34 9 62 19 62 24 0 4 -24 13 -52 20 -29 6 -62 15
-73 20 -11 4 -40 13 -65 20 -44 11 -106 28 -205 55 -27 8 -70 19 -95 25 -25 7
-54 15 -65 20 -11 5 -40 14 -65 20 -68 17 -139 37 -200 55 -30 9 -80 23 -110
31 -30 8 -77 21 -105 28 -27 8 -106 30 -175 50 -69 20 -147 42 -175 50 -134
38 -193 54 -299 86 -79 23 -114 24 -171 5z"/>
</g>
</svg>
